{
  "accessors": [
    {
      "bufferView": 2,
      "componentType": 5126,
      "count": 6342,
      "max": [
        -182.86900329589844,
        5.503610134124756,
        16.899599075317383
      ],
      "min": [
        -194.71800231933594,
        -5.496389865875244,
        2.4995999336242676
      ],
      "type": "VEC3"
    },
    {
      "bufferView": 2,
      "byteOffset": 76104,
      "componentType": 5126,
      "count": 6342,
      "max": [
        1.0,
        1.0,
        1.0
      ],
      "min": [
        -1.0,
        -1.0,
        -1.0
      ],
      "type": "VEC3"
    },
    {
      "bufferView": 1,
      "componentType": 5126,
      "count": 6342,
      "max": [
        0.0,
        0.0
      ],
      "min": [
        0.0,
        0.0
      ],
      "type": "VEC2"
    },
    {
      "bufferView": 0,
      "componentType": 5125,
      "count": 21060,
      "type": "SCALAR"
    },
    {
      "bufferView": 2,
      "byteOffset": 152208,
      "componentType": 5126,
      "count": 41835,
      "max": [
        -30.049699783325195,
        118.5790023803711,
        52.72570037841797
      ],
      "min": [
        -120.53600311279297,
        -119.31600189208984,
        20.0492000579834
      ],
      "type": "VEC3"
    },
    {
      "bufferView": 2,
      "byteOffset": 654228,
      "componentType": 5126,
      "count": 41835,
      "max": [
        1.0,
        0.9999957084655762,
        1.0
      ],
      "min": [
        -1.0,
        -0.9999957084655762,
        -1.0
      ],
      "type": "VEC3"
    },
    {
      "bufferView": 1,
      "byteOffset": 50736,
      "componentType": 5126,
      "count": 41835,
      "max": [
        0.0,
        0.0
      ],
      "min": [
        0.0,
        0.0
      ],
      "type": "VEC2"
    },
    {
      "bufferView": 0,
      "byteOffset": 84240,
      "componentType": 5125,
      "count": 141678,
      "type": "SCALAR"
    },
    {
      "bufferView": 2,
      "byteOffset": 1156248,
      "componentType": 5126,
      "count": 41878,
      "max": [
        -39.75019836425781,
        74.60389709472656,
        58.0078010559082
      ],
      "min": [
        -130.23699951171875,
        -75.23380279541016,
        21.65489959716797
      ],
      "type": "VEC3"
    },
    {
      "bufferView": 2,
      "byteOffset": 1658784,
      "componentType": 5126,
      "count": 41878,
      "max": [
        1.0,
        0.9999957084655762,
        1.0
      ],
      "min": [
        -1.0,
        -0.9999956488609314,
        -1.0
      ],
      "type": "VEC3"
    },
    {
      "bufferView": 1,
      "byteOffset": 385416,
      "componentType": 5126,
      "count": 41878,
      "max": [
        0.0,
        0.0
      ],
      "min": [
        0.0,
        0.0
      ],
      "type": "VEC2"
    },
    {
      "bufferView": 0,
      "byteOffset": 650952,
      "componentType": 5125,
      "count": 141822,
      "type": "SCALAR"
    },
    {
      "bufferView": 2,
      "byteOffset": 2161320,
      "componentType": 5126,
      "count": 242,
      "max": [
        -187.83599853515625,
        19.798500061035156,
        48.71969985961914
      ],
      "min": [
        -206.76699829101563,
        -19.798500061035156,
        41.49250030517578
      ],
      "type": "VEC3"
    },
    {
      "bufferView": 2,
      "byteOffset": 2164224,
      "componentType": 5126,
      "count": 242,
      "max": [
        -0.369249552488327,
        0.8721031546592712,
        0.7542546391487122
      ],
      "min": [
        -0.9625712633132935,
        -0.8721031546592712,
        0.25806981325149536
      ],
      "type": "VEC3"
    },
    {
      "bufferView": 1,
      "byteOffset": 720440,
      "componentType": 5126,
      "count": 242,
      "max": [
        0.0,
        0.0
      ],
      "min": [
        0.0,
        0.0
      ],
      "type": "VEC2"
    },
    {
      "bufferView": 0,
      "byteOffset": 1218240,
      "componentType": 5125,
      "count": 822,
      "type": "SCALAR"
    },
    {
      "bufferView": 2,
      "byteOffset": 2167128,
      "componentType": 5126,
      "count": 22578,
      "max": [
        217.17100524902344,
        214.6479949951172,
        147.56700134277344
      ],
      "min": [
        -217.17100524902344,
        -214.6479949951172,
        1.205989956855774
      ],
      "type": "VEC3"
    },
    {
      "bufferView": 2,
      "byteOffset": 2438064,
      "componentType": 5126,
      "count": 22578,
      "max": [
        1.0,
        1.0,
        1.0
      ],
      "min": [
        -1.0,
        -1.0,
        -1.0
      ],
      "type": "VEC3"
    },
    {
      "bufferView": 1,
      "byteOffset": 722376,
      "componentType": 5126,
      "count": 22578,
      "max": [
        0.0,
        0.0
      ],
      "min": [
        0.0,
        0.0
      ],
      "type": "VEC2"
    },
    {
      "bufferView": 0,
      "byteOffset": 1221528,
      "componentType": 5125,
      "count": 122343,
      "type": "SCALAR"
    },
    {
      "bufferView": 2,
      "byteOffset": 2709000,
      "componentType": 5126,
      "count": 41408,
      "max": [
        -23.101699829101563,
        36.03609848022461,
        19.99959945678711
      ],
      "min": [
        -57.069400787353516,
        -36.03609848022461,
        2.4995899200439453
      ],
      "type": "VEC3"
    },
    {
      "bufferView": 2,
      "byteOffset": 3205896,
      "componentType": 5126,
      "count": 41408,
      "max": [
        1.0,
        1.0,
        1.0
      ],
      "min": [
        -1.0,
        -1.0,
        -1.0
      ],
      "type": "VEC3"
    },
    {
      "bufferView": 1,
      "byteOffset": 903000,
      "componentType": 5126,
      "count": 41408,
      "max": [
        0.0,
        0.0
      ],
      "min": [
        0.0,
        0.0
      ],
      "type": "VEC2"
    },
    {
      "bufferView": 0,
      "byteOffset": 1710900,
      "componentType": 5125,
      "count": 140400,
      "type": "SCALAR"
    },
    {
      "bufferView": 2,
      "byteOffset": 3702792,
      "componentType": 5126,
      "count": 26910,
      "max": [
        -27.349599838256836,
        36.201900482177734,
        9.999190330505371
      ],
      "min": [
        -194.3249969482422,
        -36.71900177001953,
        7.85626980359666e-07
      ],
      "type": "VEC3"
    },
    {
      "bufferView": 2,
      "byteOffset": 4025712,
      "componentType": 5126,
      "count": 26910,
      "max": [
        0.9998237490653992,
        0.9999558925628662,
        0.9999713897705078
      ],
      "min": [
        -0.999830961227417,
        -0.9999556541442871,
        -0.9999713897705078
      ],
      "type": "VEC3"
    },
    {
      "bufferView": 1,
      "byteOffset": 1234264,
      "componentType": 5126,
      "count": 26910,
      "max": [
        0.0,
        0.0
      ],
      "min": [
        0.0,
        0.0
      ],
      "type": "VEC2"
    },
    {
      "bufferView": 0,
      "byteOffset": 2272500,
      "componentType": 5125,
      "count": 87024,
      "type": "SCALAR"
    }
  ],
  "asset": {
    "extras": {
      "author": "AnirudhRao (https://sketchfab.com/AnirudhRao)",
      "license": "CC-BY-4.0 (http://creativecommons.org/licenses/by/4.0/)",
      "source": "https://sketchfab.com/3d-models/c17-globemaster-iii-597e0d7f9e3446719a2f2de3dd3fa67d",
      "title": "C17 Globemaster III"
    },
    "generator": "Sketchfab-12.67.0",
    "version": "2.0"
  },
  "bufferViews": [
    {
      "buffer": 0,
      "byteLength": 2620596,
      "name": "floatBufferViews",
      "target": 34963
    },
    {
      "buffer": 0,
      "byteLength": 1449544,
      "byteOffset": 2620596,
      "byteStride": 8,
      "name": "floatBufferViews",
      "target": 34962
    },
    {
      "buffer": 0,
      "byteLength": 4348632,
      "byteOffset": 4070140,
      "byteStride": 12,
      "name": "floatBufferViews",
      "target": 34962
    }
  ],
  "buffers": [
    {
      "byteLength": 8418772,
      "uri": "scene.bin"
    }
  ],
  "images": [
    {
      "uri": "textures/Part1.1.1_ReferenceRepcolor128128128_baseColor.jpeg"
    }
  ],
  "materials": [
    {
      "doubleSided": true,
      "name": "NoseGear_ReferenceRepcolor128128128",
      "pbrMetallicRoughness": {
        "baseColorFactor": [
          0.6994024055,
          0.6718150543,
          0.6718150543,
          1.0
        ],
        "metallicFactor": 0.0,
        "roughnessFactor": 0.6
      }
    },
    {
      "doubleSided": true,
      "name": "Part1.1.1_ReferenceRepcolor128128128",
      "pbrMetallicRoughness": {
        "baseColorFactor": [
          0.2761051829,
          0.2761051829,
          0.2761051829,
          1.0
        ],
        "baseColorTexture": {
          "index": 0
        },
        "metallicFactor": 0.0,
        "roughnessFactor": 0.6
      }
    },
    {
      "doubleSided": true,
      "name": "Part1.1.2_ReferenceRepcolor128128128",
      "pbrMetallicRoughness": {
        "baseColorFactor": [
          0.3065929878,
          0.3065929878,
          0.3065929878,
          1.0
        ],
        "baseColorTexture": {
          "index": 0
        },
        "metallicFactor": 0.0,
        "roughnessFactor": 0.6
      }
    },
    {
      "alphaMode": "BLEND",
      "doubleSided": true,
      "name": "Part1.1_ReferenceRepcolor128128128",
      "pbrMetallicRoughness": {
        "baseColorFactor": [
          0.2527695293,
          0.2313968049,
          0.2313968049,
          0.6175685976
        ],
        "metallicFactor": 0.0,
        "roughnessFactor": 0.6
      }
    },
    {
      "doubleSided": true,
      "name": "Part1.2.3_ReferenceRepcolor128128128",
      "pbrMetallicRoughness": {
        "baseColorFactor": [
          0.1419588415,
          0.1419588415,
          0.1419588415,
          1.0
        ],
        "baseColorTexture": {
          "index": 1
        },
        "metallicFactor": 0.0,
        "roughnessFactor": 0.6
      }
    },
    {
      "doubleSided": true,
      "name": "Part1.2.4_ReferenceRepcolor128128128",
      "pbrMetallicRoughness": {
        "metallicFactor": 0.0,
        "roughnessFactor": 0.6
      }
    },
    {
      "doubleSided": true,
      "name": "Part2_ReferenceRepcolor128128128",
      "pbrMetallicRoughness": {
        "baseColorFactor": [
          0.0158762935,
          0.0158762935,
          0.0158762935,
          1.0
        ],
        "metallicFactor": 0.0,
        "roughnessFactor": 0.6
      }
    }
  ],
  "meshes": [
    {
      "name": "Object_0",
      "primitives": [
        {
          "attributes": {
            "NORMAL": 1,
            "POSITION": 0,
            "TEXCOORD_0": 2
          },
          "indices": 3,
          "material": 0,
          "mode": 4
        }
      ]
    },
    {
      "name": "Object_1",
      "primitives": [
        {
          "attributes": {
            "NORMAL": 5,
            "POSITION": 4,
            "TEXCOORD_0": 6
          },
          "indices": 7,
          "material": 1,
          "mode": 4
        }
      ]
    },
    {
      "name": "Object_2",
      "primitives": [
        {
          "attributes": {
            "NORMAL": 9,
            "POSITION": 8,
            "TEXCOORD_0": 10
          },
          "indices": 11,
          "material": 2,
          "mode": 4
        }
      ]
    },
    {
      "name": "Object_3",
      "primitives": [
        {
          "attributes": {
            "NORMAL": 13,
            "POSITION": 12,
            "TEXCOORD_0": 14
          },
          "indices": 15,
          "material": 3,
          "mode": 4
        }
      ]
    },
    {
      "name": "Object_4",
      "primitives": [
        {
          "attributes": {
            "NORMAL": 17,
            "POSITION": 16,
            "TEXCOORD_0": 18
          },
          "indices": 19,
          "material": 4,
          "mode": 4
        }
      ]
    },
    {
      "name": "Object_5",
      "primitives": [
        {
          "attributes": {
            "NORMAL": 21,
            "POSITION": 20,
            "TEXCOORD_0": 22
          },
          "indices": 23,
          "material": 5,
          "mode": 4
        }
      ]
    },
    {
      "name": "Object_6",
      "primitives": [
        {
          "attributes": {
            "NORMAL": 25,
            "POSITION": 24,
            "TEXCOORD_0": 26
          },
          "indices": 27,
          "material": 6,
          "mode": 4
        }
      ]
    }
  ],
  "nodes": [
    {
      "children": [
        1
      ],
      "matrix": [
        1.0,
        0.0,
        0.0,
        0.0,
        0.0,
        2.220446049250313e-16,
        -1.0,
        0.0,
        0.0,
        1.0,
        2.220446049250313e-16,
        0.0,
        0.0,
        0.0,
        0.0,
        1.0
      ],
      "name": "Sketchfab_model"
    },
    {
      "children": [
        2,
        3,
        4,
        5,
        6,
        7,
        8
      ],
      "name": "C17.obj.cleaner.materialmerger.gles"
    },
    {
      "mesh": 0,
      "name": "Object_2"
    },
    {
      "mesh": 1,
      "name": "Object_3"
    },
    {
      "mesh": 2,
      "name": "Object_4"
    },
    {
      "mesh": 3,
      "name": "Object_5"
    },
    {
      "mesh": 4,
      "name": "Object_6"
    },
    {
      "mesh": 5,
      "name": "Object_7"
    },
    {
      "mesh": 6,
      "name": "Object_8"
    }
  ],
  "samplers": [
    {
      "magFilter": 9729,
      "minFilter": 9987,
      "wrapS": 33648,
      "wrapT": 33648
    },
    {
      "magFilter": 9729,
      "minFilter": 9987,
      "wrapS": 10497,
      "wrapT": 10497
    }
  ],
  "scene": 0,
  "scenes": [
    {
      "name": "Sketchfab_Scene",
      "nodes": [
        0
      ]
    }
  ],
  "textures": [
    {
      "sampler": 0,
      "source": 0
    },
    {
      "sampler": 1,
      "source": 0
    }
  ]
}
